<svg width="128" height="128" viewBox="0 0 128 128" fill="none" xmlns="http://www.w3.org/2000/svg">
  <!-- 背景渐变 -->
  <defs>
    <linearGradient id="bgGradient" x1="0%" y1="0%" x2="100%" y2="100%">
      <stop offset="0%" style="stop-color:#3B82F6;stop-opacity:1" />
      <stop offset="100%" style="stop-color:#8B5CF6;stop-opacity:1" />
    </linearGradient>
    <linearGradient id="iconGradient" x1="0%" y1="0%" x2="100%" y2="100%">
      <stop offset="0%" style="stop-color:#FFFFFF;stop-opacity:1" />
      <stop offset="100%" style="stop-color:#E0E7FF;stop-opacity:1" />
    </linearGradient>
  </defs>

  <!-- 圆角矩形背景 -->
  <rect width="128" height="128" rx="24" fill="url(#bgGradient)"/>

  <!-- 文档图标 -->
  <rect x="32" y="28" width="52" height="68" rx="4" fill="url(#iconGradient)" opacity="0.9"/>
  <line x1="40" y1="42" x2="76" y2="42" stroke="#3B82F6" stroke-width="3" stroke-linecap="round"/>
  <line x1="40" y1="52" x2="76" y2="52" stroke="#3B82F6" stroke-width="3" stroke-linecap="round"/>
  <line x1="40" y1="62" x2="68" y2="62" stroke="#3B82F6" stroke-width="3" stroke-linecap="round"/>
  <line x1="40" y1="72" x2="72" y2="72" stroke="#3B82F6" stroke-width="3" stroke-linecap="round"/>
  <line x1="40" y1="82" x2="66" y2="82" stroke="#3B82F6" stroke-width="3" stroke-linecap="round"/>

  <!-- 放大镜 -->
  <circle cx="78" cy="78" r="18" fill="url(#iconGradient)" stroke="#3B82F6" stroke-width="3"/>
  <circle cx="78" cy="78" r="12" fill="none" stroke="#8B5CF6" stroke-width="2"/>
  <line x1="90" y1="90" x2="102" y2="102" stroke="#FFFFFF" stroke-width="6" stroke-linecap="round"/>
  <line x1="90" y1="90" x2="102" y2="102" stroke="#3B82F6" stroke-width="4" stroke-linecap="round"/>

  <!-- 装饰性光点 -->
  <circle cx="24" cy="24" r="3" fill="#FFFFFF" opacity="0.6"/>
  <circle cx="104" cy="24" r="2" fill="#FFFFFF" opacity="0.4"/>
  <circle cx="24" cy="104" r="2" fill="#FFFFFF" opacity="0.5"/>
</svg>
